<svg width="78" height="77" viewBox="0 0 78 77" fill="none" xmlns="http://www.w3.org/2000/svg">
<path d="M37.3125 34.0469V13.5625H21.7031C21.3675 13.5625 21.0455 13.7032 20.8082 13.9538C20.5708 14.2043 20.4375 14.5441 20.4375 14.8984V62.1016C20.4375 62.4559 20.5708 62.7957 20.8082 63.0462C21.0455 63.2967 21.3675 63.4375 21.7031 63.4375H56.2969C56.6325 63.4375 56.9545 63.2967 57.1918 63.0462C57.4292 62.7957 57.5625 62.4559 57.5625 62.1016V34.9375H38.1562C37.9325 34.9375 37.7179 34.8437 37.5596 34.6766C37.4014 34.5096 37.3125 34.2831 37.3125 34.0469Z" fill="url(#paint0_linear_16_2)"/>
<path d="M40.6875 14.6413V30.9297C40.6875 31.0478 40.7319 31.1611 40.8111 31.2446C40.8902 31.3281 40.9975 31.375 41.1094 31.375H56.5405C56.5822 31.375 56.6229 31.362 56.6576 31.3376C56.6923 31.3132 56.7194 31.2786 56.7354 31.2379C56.7514 31.1973 56.7557 31.1526 56.7477 31.1094C56.7396 31.0663 56.7197 31.0266 56.6903 30.9954L41.0471 14.4832C41.0176 14.4522 40.98 14.4311 40.9391 14.4226C40.8982 14.4141 40.8558 14.4186 40.8173 14.4355C40.7789 14.4525 40.746 14.481 40.7229 14.5176C40.6998 14.5543 40.6875 14.5973 40.6875 14.6413Z" fill="url(#paint1_linear_16_2)"/>
<g clip-path="url(#clip0_16_2)">
<path d="M41.4611 44.9306L35.8708 53.0694L33.475 49.8139" stroke="white" stroke-width="3" stroke-linecap="round" stroke-linejoin="round"/>
<path d="M45.542 39.1893H29.3941C27.9077 39.1893 26.7028 40.2874 26.7028 41.642V56.358C26.7028 57.7126 27.9077 58.8107 29.3941 58.8107H45.542C47.0284 58.8107 48.2333 57.7126 48.2333 56.358V41.642C48.2333 40.2874 47.0284 39.1893 45.542 39.1893Z" stroke="white" stroke-width="3" stroke-linejoin="round"/>
</g>
<defs>
<linearGradient id="paint0_linear_16_2" x1="39" y1="13.5625" x2="39" y2="63.4375" gradientUnits="userSpaceOnUse">
<stop stop-color="#A100FF"/>
<stop offset="1" stop-color="#610099"/>
</linearGradient>
<linearGradient id="paint1_linear_16_2" x1="48.7196" y1="14.4184" x2="48.7196" y2="31.375" gradientUnits="userSpaceOnUse">
<stop stop-color="#A100FF"/>
<stop offset="1" stop-color="#610099"/>
</linearGradient>
<clipPath id="clip0_16_2">
<rect width="23" height="20" fill="white" transform="translate(26 39)"/>
</clipPath>
</defs>
</svg>
