<svg width="78" height="77" viewBox="0 0 78 77" fill="none" xmlns="http://www.w3.org/2000/svg">
<g clip-path="url(#clip0_1_8)">
<g clip-path="url(#clip1_1_8)">
<path d="M53.8182 33.7679V12H42.8863C42.6513 12 42.4258 12.1496 42.2596 12.4158C42.0934 12.682 42 13.0431 42 13.4196V63.5804C42 63.9569 42.0934 64.318 42.2596 64.5842C42.4258 64.8505 42.6513 65 42.8863 65H67.1137C67.3487 65 67.5742 64.8505 67.7404 64.5842C67.9066 64.318 68 63.9569 68 63.5804V34.7143H54.4091C54.2524 34.7143 54.1021 34.6146 53.9912 34.437C53.8804 34.2596 53.8182 34.0189 53.8182 33.7679Z" fill="url(#paint0_linear_1_8)"/>
<path d="M56 13.2497V31.501C56 31.6334 56.0304 31.7603 56.0846 31.8539C56.1388 31.9474 56.2123 32 56.2889 32H66.8554C66.884 32 66.9119 31.9854 66.9356 31.9581C66.9594 31.9308 66.9779 31.892 66.9889 31.8464C66.9998 31.8009 67.0028 31.7508 66.9973 31.7024C66.9918 31.6541 66.9781 31.6096 66.958 31.5747L56.2462 13.0725C56.226 13.0378 56.2003 13.0142 56.1723 13.0047C56.1443 12.9952 56.1152 13.0002 56.0889 13.0192C56.0626 13.0381 56.0401 13.0701 56.0242 13.1112C56.0084 13.1522 56 13.2004 56 13.2497Z" fill="url(#paint1_linear_1_8)"/>
<path d="M34 27.3926H31.4332L20.7949 33.7979L17.6329 30.9262C17.8221 29.4155 17.6917 27.8396 17.2646 26.4762C16.8375 25.1129 16.141 24.0495 15.298 23.4734C14.455 22.8973 13.5194 22.8453 12.656 23.3268C11.7927 23.8083 11.0569 24.7922 10.5784 26.1053C10.0999 27.4184 9.90936 28.9764 10.0403 30.5051C10.1712 32.0336 10.6152 33.4346 11.294 34.4611C11.9729 35.4878 12.8431 36.0743 13.7514 36.1173C14.6596 36.1602 15.5477 35.657 16.2591 34.6961L19.0505 37.5797L18.5992 40.9379L16.2655 43.3705C15.5521 42.4076 14.6604 41.9077 13.75 41.9604C12.8396 42.0129 11.9699 42.6145 11.2965 43.6574C10.6232 44.7003 10.1901 46.1166 10.0748 47.6528C9.95945 49.1888 10.1694 50.7446 10.6672 52.0416C11.1649 53.3386 11.9178 54.2922 12.7913 54.7318C13.6648 55.1714 14.6018 55.0681 15.4345 54.4407C16.2674 53.8132 16.9417 52.7024 17.3368 51.3072C17.7319 49.9118 17.8221 48.323 17.5912 46.825L34 30.3017V27.3926ZM13.8656 33.2107C13.4425 33.2107 13.029 32.9975 12.6772 32.5978C12.3255 32.1983 12.0513 31.6304 11.8894 30.966C11.7275 30.3016 11.6852 29.5704 11.7677 28.865C11.8502 28.1596 12.0539 27.5117 12.3531 27.0032C12.6522 26.4946 13.0334 26.1483 13.4483 26.008C13.8632 25.8677 14.2933 25.9397 14.6841 26.2149C15.075 26.4901 15.4091 26.9562 15.6441 27.5542C15.8792 28.1522 16.0046 28.8552 16.0046 29.5744C16.0046 30.052 15.9493 30.5248 15.8418 30.966C15.7342 31.4072 15.5767 31.808 15.3781 32.1457C15.1795 32.4833 14.9437 32.7512 14.6841 32.9339C14.4246 33.1166 14.1465 33.2107 13.8656 33.2107ZM13.8656 52.1195C13.4425 52.1195 13.029 51.9062 12.6772 51.5067C12.3255 51.1071 12.0513 50.5392 11.8894 49.8748C11.7275 49.2103 11.6852 48.4791 11.7677 47.7738C11.8502 47.0684 12.0539 46.4205 12.3531 45.9119C12.6522 45.4034 13.0334 45.0571 13.4483 44.9167C13.8632 44.7764 14.2933 44.8485 14.6841 45.1237C15.075 45.3989 15.4091 45.865 15.6441 46.463C15.8792 47.061 16.0046 47.764 16.0046 48.4832C16.0046 49.4476 15.7792 50.3725 15.3781 51.0544C14.9769 51.7364 14.4329 52.1195 13.8656 52.1195ZM21.9938 39.0288C21.8246 39.0288 21.6592 38.9435 21.5185 38.7836C21.3777 38.6239 21.2681 38.3967 21.2033 38.1309C21.1386 37.8651 21.1216 37.5727 21.1546 37.2905C21.1876 37.0083 21.2691 36.7492 21.3888 36.5458C21.5085 36.3423 21.6609 36.2039 21.8269 36.1477C21.9928 36.0916 22.1649 36.1204 22.3212 36.2305C22.4776 36.3406 22.6112 36.527 22.7052 36.7662C22.7992 37.0054 22.8494 37.2866 22.8494 37.5743C22.8494 37.96 22.7592 38.33 22.5988 38.6027C22.4383 38.8755 22.2207 39.0288 21.9938 39.0288Z" fill="url(#paint2_linear_1_8)"/>
<path d="M26.5687 39L22 43.0102L31.3812 48H33.9995L34 45.3365L26.5687 39Z" fill="url(#paint3_linear_1_8)"/>
</g>
</g>
<defs>
<linearGradient id="paint0_linear_1_8" x1="55" y1="12" x2="55" y2="65" gradientUnits="userSpaceOnUse">
<stop stop-color="#A100FF"/>
<stop offset="1" stop-color="#610099"/>
</linearGradient>
<linearGradient id="paint1_linear_1_8" x1="61.5" y1="13" x2="61.5" y2="32" gradientUnits="userSpaceOnUse">
<stop stop-color="#A100FF"/>
<stop offset="1" stop-color="#610099"/>
</linearGradient>
<linearGradient id="paint2_linear_1_8" x1="22" y1="23" x2="22" y2="55" gradientUnits="userSpaceOnUse">
<stop stop-color="#A100FF"/>
<stop offset="1" stop-color="#610099"/>
</linearGradient>
<linearGradient id="paint3_linear_1_8" x1="28" y1="39" x2="28" y2="48" gradientUnits="userSpaceOnUse">
<stop stop-color="#A100FF"/>
<stop offset="1" stop-color="#610099"/>
</linearGradient>
<clipPath id="clip0_1_8">
<rect width="78" height="77" fill="white"/>
</clipPath>
<clipPath id="clip1_1_8">
<rect width="78" height="77" fill="white"/>
</clipPath>
</defs>
</svg>
